<svg width="59" height="56" viewBox="0 0 59 56" fill="none" xmlns="http://www.w3.org/2000/svg">
<ellipse cx="29.5" cy="28" rx="29.5" ry="28" fill="black"/>
<path d="M11.2456 16.9892C12.8072 16.9892 14.3647 16.9892 15.9262 16.9892C16.1487 16.9892 16.3712 16.9892 16.5937 16.9892C16.3996 16.8498 16.2054 16.7142 16.0071 16.5748C16.1406 17.1663 16.2741 17.7578 16.4076 18.3492C16.7313 19.7695 17.0509 21.1936 17.3745 22.6139C17.7669 24.3393 18.1553 26.0685 18.5477 27.794C18.8835 29.2821 19.2192 30.7664 19.5591 32.2545C19.6683 32.7443 19.7816 33.2341 19.8908 33.7238C19.9434 33.9536 19.9838 34.1947 20.0486 34.4208C20.0526 34.4321 20.0526 34.4396 20.0566 34.4509C20.1092 34.692 20.3884 34.8653 20.6432 34.8653C21.3229 34.8653 21.9985 34.8653 22.6781 34.8653C24.3044 34.8653 25.9307 34.8653 27.561 34.8653C29.5149 34.8653 31.4689 34.8653 33.4229 34.8653C35.122 34.8653 36.8251 34.8653 38.5242 34.8653C39.3495 34.8653 40.1788 34.8955 41 34.8653C41.0121 34.8653 41.0243 34.8653 41.0324 34.8653C41.3034 34.8653 41.5421 34.6883 41.619 34.4509C41.7565 34.0139 41.8981 33.5769 42.0356 33.1399C42.3714 32.085 42.7072 31.0302 43.043 29.9753C43.4475 28.7057 43.8521 27.4323 44.2566 26.1627C44.6086 25.0627 44.9565 23.9664 45.3084 22.8663C45.4783 22.3313 45.6725 21.8001 45.8222 21.2576C45.8262 21.2501 45.8262 21.2426 45.8303 21.235C45.9436 20.8809 45.6321 20.5192 45.2437 20.5192C44.4993 20.5192 43.755 20.5192 43.0146 20.5192C41.2427 20.5192 39.4749 20.5192 37.703 20.5192C35.5548 20.5192 33.4107 20.5192 31.2626 20.5192C29.4057 20.5192 27.5529 20.5192 25.696 20.5192C24.7979 20.5192 23.8958 20.4966 22.9977 20.5192C22.9856 20.5192 22.9734 20.5192 22.9572 20.5192C22.6417 20.5192 22.3342 20.7792 22.3504 21.0843C22.3666 21.3895 22.6174 21.6494 22.9572 21.6494C23.7016 21.6494 24.446 21.6494 25.1863 21.6494C26.9582 21.6494 28.7261 21.6494 30.498 21.6494C32.6461 21.6494 34.7902 21.6494 36.9384 21.6494C38.7952 21.6494 40.6481 21.6494 42.5049 21.6494C43.1158 21.6494 43.7226 21.6494 44.3335 21.6494C44.6207 21.6494 44.916 21.6645 45.2032 21.6494C45.2154 21.6494 45.2275 21.6494 45.2437 21.6494C45.0495 21.4121 44.8553 21.171 44.6571 20.9336C44.5196 21.3707 44.378 21.8077 44.2404 22.2447C43.9046 23.2995 43.5689 24.3544 43.2331 25.4093C42.8286 26.6789 42.424 27.9522 42.0195 29.2218C41.6675 30.3219 41.3196 31.4182 40.9676 32.5183C40.7977 33.0495 40.5914 33.5844 40.4539 34.1269C40.4539 34.1345 40.4498 34.142 40.4458 34.1495C40.64 34.0101 40.8341 33.8745 41.0324 33.7351C40.3527 33.7351 39.6771 33.7351 38.9975 33.7351C37.3712 33.7351 35.7449 33.7351 34.1146 33.7351C32.1607 33.7351 30.2067 33.7351 28.2528 33.7351C26.5537 33.7351 24.8505 33.7351 23.1514 33.7351C22.5891 33.7351 22.0308 33.7351 21.4685 33.7351C21.2056 33.7351 20.9345 33.7201 20.6716 33.7351C20.6594 33.7351 20.6473 33.7351 20.6392 33.7351C20.8334 33.8745 21.0276 34.0101 21.2258 34.1495C21.0923 33.5581 20.9588 32.9666 20.8253 32.3751C20.5016 30.9548 20.1821 29.5307 19.8584 28.1105C19.466 26.385 19.0776 24.6558 18.6852 22.9303C18.3495 21.4422 18.0137 19.9579 17.6739 18.4698C17.5646 17.98 17.4514 17.4903 17.3421 17.0005C17.2896 16.7707 17.2491 16.5296 17.1844 16.3036C17.1803 16.2923 17.1803 16.2847 17.1763 16.2734C17.1237 16.0323 16.8446 15.859 16.5897 15.859C15.0281 15.859 13.4706 15.859 11.9091 15.859C11.6866 15.859 11.4641 15.859 11.2416 15.859C10.926 15.859 10.6186 16.119 10.6348 16.4241C10.655 16.7293 10.9058 16.9892 11.2456 16.9892Z" fill="white"/>
<path d="M34.8307 39.6009C34.8469 40.8894 35.7126 42.012 37.0031 42.4566C38.237 42.8823 39.7257 42.5018 40.5591 41.56C41.4329 40.5729 41.5907 39.1677 40.8827 38.0563C40.1707 36.9449 38.7751 36.3911 37.4198 36.6322C35.923 36.9035 34.8469 38.1995 34.8307 39.6009C34.8267 39.8948 35.1139 40.1811 35.4376 40.166C35.7693 40.151 36.0403 39.9174 36.0444 39.6009C36.0444 39.5407 36.0484 39.4766 36.0525 39.4163C36.0565 39.39 36.0565 39.3636 36.0606 39.3372C36.0606 39.3448 36.0444 39.4276 36.0565 39.3598C36.0767 39.2355 36.1091 39.1112 36.1536 38.9906C36.1698 38.9416 36.19 38.8964 36.2062 38.8475C36.1617 38.9529 36.2305 38.8022 36.2426 38.7796C36.3033 38.6666 36.3761 38.5649 36.4489 38.4632C36.5096 38.3765 36.4085 38.5009 36.4813 38.4217C36.5217 38.3803 36.5622 38.3351 36.6067 38.2937C36.6431 38.2597 36.6795 38.2221 36.72 38.1919C36.7442 38.1693 36.7726 38.1467 36.8009 38.1279C36.809 38.1204 36.8939 38.0563 36.8413 38.094C36.7887 38.1317 36.8575 38.0827 36.8656 38.0789C36.8939 38.0601 36.9222 38.0412 36.9546 38.0224C36.9991 37.996 37.0436 37.9697 37.0921 37.9471C37.1447 37.9169 37.2014 37.8943 37.258 37.8679C37.2823 37.8566 37.3066 37.8453 37.3308 37.8378C37.2216 37.883 37.3389 37.8378 37.3591 37.8303C37.4724 37.7964 37.5816 37.7625 37.699 37.7399C37.7273 37.7323 37.8931 37.7097 37.8365 37.7172C37.7677 37.7248 37.8567 37.7172 37.8648 37.7172C37.9012 37.7135 37.9376 37.7135 37.9781 37.7097C38.1116 37.7059 38.2411 37.7097 38.3705 37.721C38.2653 37.7135 38.3867 37.7248 38.4271 37.7323C38.5 37.7436 38.5687 37.7625 38.6416 37.7775C38.7022 37.7926 38.7629 37.8114 38.8236 37.8303C38.8479 37.8378 38.8722 37.8491 38.9005 37.8566C38.8762 37.8491 38.7993 37.8114 38.9045 37.8604C39.0178 37.9132 39.127 37.9659 39.2282 38.0299C39.2727 38.0563 39.3172 38.0865 39.3576 38.1128C39.2605 38.0488 39.3981 38.1467 39.4183 38.1656C39.5194 38.2484 39.6044 38.3389 39.6934 38.4293C39.7662 38.5084 39.6651 38.3841 39.7257 38.4707C39.7581 38.5197 39.7945 38.5649 39.8269 38.6139C39.8592 38.6629 39.8916 38.7118 39.9199 38.7646C39.9321 38.7872 39.9442 38.8098 39.9563 38.8324C39.9604 38.8437 40.0049 38.9379 39.9806 38.8776C39.9563 38.8173 39.9887 38.8964 39.9887 38.904C40.0008 38.9341 40.013 38.968 40.0251 38.9982C40.0413 39.0471 40.0575 39.0961 40.0696 39.1451C40.0858 39.2016 40.0979 39.2619 40.1101 39.3184C40.1141 39.3448 40.1182 39.3674 40.1222 39.3937C40.106 39.2807 40.1182 39.4013 40.1222 39.4239C40.1303 39.5369 40.1303 39.6537 40.1262 39.7667C40.1222 39.8006 40.1182 39.8345 40.1182 39.8722C40.1182 39.8646 40.1343 39.7818 40.1222 39.8496C40.1101 39.9174 40.0979 39.9852 40.0777 40.0492C40.0494 40.1547 40.013 40.2602 39.9725 40.3619C40.0089 40.2715 39.9644 40.377 39.9482 40.4109C39.9159 40.4712 39.8835 40.5277 39.8471 40.5842C39.8147 40.6332 39.7824 40.6822 39.746 40.7311C39.7298 40.75 39.7136 40.7726 39.7015 40.7914C39.7177 40.7726 39.7743 40.7123 39.6974 40.7914C39.6165 40.8781 39.5316 40.961 39.4426 41.0401C39.4223 41.0589 39.2969 41.1531 39.3414 41.1229C39.3859 41.0928 39.2726 41.1682 39.2524 41.1795C39.1391 41.2473 39.0259 41.3038 38.9045 41.3603C38.8034 41.4055 38.9612 41.349 38.8519 41.3791C38.7912 41.398 38.7346 41.4168 38.6739 41.4356C38.6132 41.4507 38.5526 41.4658 38.4878 41.4808C38.4595 41.4846 38.4352 41.4922 38.4069 41.4959C38.3948 41.4997 38.2815 41.511 38.3503 41.5035C38.4069 41.4959 38.237 41.511 38.2087 41.511C38.144 41.5148 38.0752 41.5148 38.0105 41.511C37.9538 41.511 37.8972 41.5035 37.8406 41.4997C37.7435 41.4922 37.9336 41.5148 37.8365 41.4997C37.8001 41.4959 37.7637 41.4884 37.7273 41.4808C37.5938 41.4545 37.4643 41.4168 37.3349 41.3791C37.2256 41.3452 37.3066 41.3716 37.3308 41.3791C37.2985 41.3641 37.2661 41.3528 37.2337 41.3377C37.169 41.3075 37.1083 41.2774 37.0476 41.2435C36.987 41.2096 36.9303 41.1719 36.8696 41.1342C36.8616 41.1305 36.7928 41.0815 36.8454 41.1192C36.9061 41.1606 36.7806 41.0702 36.7847 41.0702C36.6836 40.9911 36.5946 40.9007 36.5056 40.8065C36.4894 40.7877 36.4732 40.7688 36.453 40.75C36.5056 40.814 36.4651 40.765 36.4368 40.7274C36.4004 40.6784 36.368 40.6332 36.3356 40.5804C36.2992 40.5239 36.2669 40.4637 36.2345 40.4071C36.2183 40.377 36.2021 40.3469 36.19 40.3167C36.2143 40.3695 36.2062 40.3619 36.19 40.313C36.1455 40.1849 36.101 40.0568 36.0727 39.9249C36.0686 39.8986 36.0646 39.8759 36.0606 39.8496C36.0444 39.7629 36.0686 39.9362 36.0606 39.8458C36.0565 39.7667 36.0484 39.6876 36.0484 39.6085C36.0444 39.3146 35.7733 39.0283 35.4416 39.0434C35.1139 39.0509 34.8267 39.2845 34.8307 39.6009Z" fill="white"/>
<path d="M20.5664 39.6009C20.5826 40.8894 21.4484 42.012 22.7389 42.4566C23.9727 42.8823 25.4615 42.5018 26.2948 41.56C27.1686 40.5729 27.3264 39.1677 26.6185 38.0563C25.9065 36.9449 24.5108 36.3911 23.1555 36.6322C21.6547 36.9035 20.5826 38.1995 20.5664 39.6009C20.5624 39.8948 20.8496 40.1811 21.1733 40.166C21.505 40.151 21.776 39.9174 21.7801 39.6009C21.7801 39.5407 21.7841 39.4766 21.7882 39.4163C21.7922 39.39 21.7922 39.3636 21.7963 39.3372C21.7963 39.3448 21.7801 39.4276 21.7922 39.3598C21.8124 39.2355 21.8448 39.1112 21.8893 38.9906C21.9055 38.9416 21.9257 38.8964 21.9419 38.8475C21.8974 38.9529 21.9662 38.8022 21.9783 38.7796C22.039 38.6666 22.1118 38.5649 22.1846 38.4632C22.2453 38.3765 22.1442 38.5009 22.217 38.4217C22.2574 38.3803 22.2979 38.3351 22.3424 38.2937C22.3788 38.2597 22.4152 38.2221 22.4557 38.1919C22.4799 38.1693 22.5083 38.1467 22.5366 38.1279C22.5447 38.1204 22.6296 38.0563 22.577 38.094C22.5244 38.1317 22.5932 38.0827 22.6013 38.0789C22.6296 38.0601 22.658 38.0412 22.6903 38.0224C22.7348 37.996 22.7793 37.9697 22.8279 37.9471C22.8805 37.9169 22.9371 37.8943 22.9937 37.8679C23.018 37.8566 23.0423 37.8453 23.0665 37.8378C22.9573 37.883 23.0746 37.8378 23.0949 37.8303C23.2081 37.7964 23.3174 37.7625 23.4347 37.7399C23.463 37.7323 23.6289 37.7097 23.5722 37.7172C23.5035 37.7248 23.5925 37.7172 23.6005 37.7172C23.637 37.7135 23.6734 37.7135 23.7138 37.7097C23.8473 37.7059 23.9768 37.7097 24.1062 37.721C24.001 37.7135 24.1224 37.7248 24.1629 37.7323C24.2357 37.7436 24.3045 37.7625 24.3773 37.7775C24.438 37.7926 24.4986 37.8114 24.5593 37.8303C24.5836 37.8378 24.6079 37.8491 24.6362 37.8566C24.6119 37.8491 24.535 37.8114 24.6402 37.8604C24.7535 37.9132 24.8627 37.9659 24.9639 38.0299C25.0084 38.0563 25.0529 38.0865 25.0933 38.1128C24.9962 38.0488 25.1338 38.1467 25.154 38.1656C25.2551 38.2484 25.3401 38.3389 25.4291 38.4293C25.5019 38.5084 25.4008 38.3841 25.4615 38.4707C25.4938 38.5197 25.5302 38.5649 25.5626 38.6139C25.595 38.6629 25.6273 38.7118 25.6556 38.7646C25.6678 38.7872 25.6799 38.8098 25.692 38.8324C25.6961 38.8437 25.7406 38.9379 25.7163 38.8776C25.692 38.8173 25.7244 38.8964 25.7244 38.904C25.7365 38.9341 25.7487 38.968 25.7608 38.9982C25.777 39.0471 25.7932 39.0961 25.8053 39.1451C25.8215 39.2016 25.8336 39.2619 25.8458 39.3184C25.8498 39.3448 25.8539 39.3674 25.8579 39.3937C25.8417 39.2807 25.8539 39.4013 25.8579 39.4239C25.866 39.5369 25.866 39.6537 25.862 39.7667C25.8579 39.8006 25.8539 39.8345 25.8539 39.8722C25.8539 39.8646 25.87 39.7818 25.8579 39.8496C25.8458 39.9174 25.8336 39.9852 25.8134 40.0492C25.7851 40.1547 25.7487 40.2602 25.7082 40.3619C25.7446 40.2715 25.7001 40.377 25.684 40.4109C25.6516 40.4712 25.6192 40.5277 25.5828 40.5842C25.5505 40.6332 25.5181 40.6822 25.4817 40.7311C25.4655 40.75 25.4493 40.7726 25.4372 40.7914C25.4534 40.7726 25.51 40.7123 25.4331 40.7914C25.3522 40.8781 25.2673 40.961 25.1783 41.0401C25.158 41.0589 25.0326 41.1531 25.0771 41.1229C25.1216 41.0928 25.0084 41.1682 24.9881 41.1795C24.8749 41.2473 24.7616 41.3038 24.6402 41.3603C24.5391 41.4055 24.6969 41.349 24.5876 41.3791C24.527 41.398 24.4703 41.4168 24.4096 41.4356C24.349 41.4507 24.2883 41.4658 24.2235 41.4808C24.1952 41.4846 24.171 41.4922 24.1426 41.4959C24.1305 41.4997 24.0172 41.511 24.086 41.5035C24.1426 41.4959 23.9727 41.511 23.9444 41.511C23.8797 41.5148 23.8109 41.5148 23.7462 41.511C23.6895 41.511 23.6329 41.5035 23.5763 41.4997C23.4792 41.4922 23.6693 41.5148 23.5722 41.4997C23.5358 41.4959 23.4994 41.4884 23.463 41.4808C23.3295 41.4545 23.2 41.4168 23.0706 41.3791C22.9614 41.3452 23.0423 41.3716 23.0665 41.3791C23.0342 41.3641 23.0018 41.3528 22.9695 41.3377C22.9047 41.3075 22.844 41.2774 22.7834 41.2435C22.7227 41.2096 22.666 41.1719 22.6054 41.1342C22.5973 41.1305 22.5285 41.0815 22.5811 41.1192C22.6418 41.1606 22.5164 41.0702 22.5204 41.0702C22.4193 40.9911 22.3303 40.9007 22.2413 40.8065C22.2251 40.7877 22.2089 40.7688 22.1887 40.75C22.2413 40.814 22.2008 40.765 22.1725 40.7274C22.1361 40.6784 22.1037 40.6332 22.0714 40.5804C22.0349 40.5239 22.0026 40.4637 21.9702 40.4071C21.954 40.377 21.9379 40.3469 21.9257 40.3167C21.95 40.3695 21.9419 40.3619 21.9257 40.313C21.8812 40.1849 21.8367 40.0568 21.8084 39.9249C21.8044 39.8986 21.8003 39.8759 21.7963 39.8496C21.7801 39.7629 21.8044 39.9362 21.7963 39.8458C21.7922 39.7667 21.7841 39.6876 21.7841 39.6085C21.7801 39.3146 21.509 39.0283 21.1773 39.0434C20.8496 39.0509 20.5624 39.2845 20.5664 39.6009Z" fill="white"/>
</svg>
