<svg width="16" height="16" viewBox="0 0 16 16" fill="none" xmlns="http://www.w3.org/2000/svg">
<path d="M6.87976 2.23999C4.32299 2.23999 2.23999 4.32297 2.23999 6.87976C2.23999 9.43654 4.32298 11.5195 6.87976 11.5195C7.98554 11.5195 9.00125 11.1286 9.79961 10.4796L12.9395 13.6194C13.1269 13.8069 13.432 13.8069 13.6194 13.6194C13.8069 13.432 13.8069 13.1319 13.6194 12.9445L10.4796 9.80462C11.1299 9.00585 11.5195 7.98678 11.5195 6.87976C11.5195 4.32297 9.43653 2.23999 6.87976 2.23999ZM6.87976 3.19994C8.91773 3.19994 10.5596 4.84177 10.5596 6.87976C10.5596 8.91772 8.91773 10.5596 6.87976 10.5596C4.84179 10.5596 3.19994 8.91772 3.19994 6.87976C3.19994 4.84177 4.84178 3.19994 6.87976 3.19994Z" fill="white"/>
</svg>
