<svg width="13" height="13" viewBox="0 0 13 13" fill="none" xmlns="http://www.w3.org/2000/svg">
<path d="M6.50001 7.58333C7.69663 7.58333 8.66668 6.61328 8.66668 5.41667C8.66668 4.22005 7.69663 3.25 6.50001 3.25C5.30339 3.25 4.33334 4.22005 4.33334 5.41667C4.33334 6.61328 5.30339 7.58333 6.50001 7.58333Z" fill="white"/>
<path d="M8.66666 8.125H4.33333C3.52733 8.125 2.83183 8.57025 2.45862 9.22404C3.33558 10.5208 4.81974 11.375 6.49999 11.375C8.18024 11.375 9.66441 10.5208 10.5414 9.22404C10.1676 8.57025 9.47266 8.125 8.66666 8.125Z" fill="white"/>
<path d="M6.5 0C2.91038 0 0 2.91038 0 6.5C0 10.0896 2.91038 13 6.5 13C10.0896 13 13 10.0896 13 6.5C13 2.91038 10.0896 0 6.5 0ZM6.5 11.9167C3.51325 11.9167 1.08333 9.48675 1.08333 6.5C1.08333 3.51325 3.51325 1.08333 6.5 1.08333C9.48675 1.08333 11.9167 3.51325 11.9167 6.5C11.9167 9.48675 9.48675 11.9167 6.5 11.9167Z" fill="white"/>
</svg>
